<mxfile host="65bd71144e">
    <diagram id="PrPwgr0bvlKDB7kM-ZkV" name="Page-1">
        <mxGraphModel dx="1659" dy="714" grid="1" gridSize="10" guides="1" tooltips="1" connect="1" arrows="1" fold="1" page="1" pageScale="1" pageWidth="800" pageHeight="400" math="0" shadow="0">
            <root>
                <mxCell id="0"/>
                <mxCell id="1" parent="0"/>
                <mxCell id="2" value="The event-driven architecture" style="swimlane;whiteSpace=wrap;html=1;" vertex="1" parent="1">
                    <mxGeometry x="20" y="25" width="760" height="355" as="geometry"/>
                </mxCell>
                <mxCell id="3" value="Event emitter" style="rounded=0;whiteSpace=wrap;html=1;" vertex="1" parent="2">
                    <mxGeometry x="50" y="80" width="140" height="60" as="geometry"/>
                </mxCell>
                <mxCell id="5" value="Attached callback function" style="rounded=0;whiteSpace=wrap;html=1;" vertex="1" parent="2">
                    <mxGeometry x="550" y="80" width="180" height="60" as="geometry"/>
                </mxCell>
                <mxCell id="6" value="Observer pattern" style="swimlane;whiteSpace=wrap;html=1;" vertex="1" parent="2">
                    <mxGeometry x="20" y="40" width="460" height="130" as="geometry"/>
                </mxCell>
                <mxCell id="4" value="Event listener" style="rounded=0;whiteSpace=wrap;html=1;" vertex="1" parent="6">
                    <mxGeometry x="310" y="40" width="130" height="60" as="geometry"/>
                </mxCell>
                <mxCell id="8" value="" style="shape=flexArrow;endArrow=classic;html=1;entryX=0;entryY=0.5;entryDx=0;entryDy=0;" edge="1" parent="6" target="4">
                    <mxGeometry width="50" height="50" relative="1" as="geometry">
                        <mxPoint x="170" y="69.5" as="sourcePoint"/>
                        <mxPoint x="240" y="69.5" as="targetPoint"/>
                    </mxGeometry>
                </mxCell>
                <mxCell id="10" value="emits events" style="text;html=1;strokeColor=none;fillColor=none;align=center;verticalAlign=middle;whiteSpace=wrap;rounded=0;" vertex="1" parent="6">
                    <mxGeometry x="200" y="80" width="60" height="30" as="geometry"/>
                </mxCell>
                <mxCell id="9" value="" style="shape=flexArrow;endArrow=classic;html=1;entryX=0;entryY=0.5;entryDx=0;entryDy=0;" edge="1" parent="2" target="5">
                    <mxGeometry width="50" height="50" relative="1" as="geometry">
                        <mxPoint x="460" y="109.5" as="sourcePoint"/>
                        <mxPoint x="540" y="110.5" as="targetPoint"/>
                    </mxGeometry>
                </mxCell>
                <mxCell id="11" value="calls" style="text;html=1;strokeColor=none;fillColor=none;align=center;verticalAlign=middle;whiteSpace=wrap;rounded=0;" vertex="1" parent="2">
                    <mxGeometry x="480" y="120" width="60" height="30" as="geometry"/>
                </mxCell>
                <mxCell id="12" value="" style="shape=image;verticalLabelPosition=bottom;labelBackgroundColor=default;verticalAlign=top;aspect=fixed;imageAspect=0;image=data:image/png,iVBORw0KGgoAAAANSUhEUgAAAaEAAACLCAYAAADI6CYmAAAAAXNSR0IArs4c6QAAAARnQU1BAACxjwv8YQUAAAAJcEhZcwAADsMAAA7DAcdvqGQAAABhaVRYdFNuaXBNZXRhZGF0YQAAAAAAeyJjbGlwUG9pbnRzIjpbeyJ4IjowLCJ5IjowfSx7IngiOjQxNywieSI6MH0seyJ4Ijo0MTcsInkiOjEzOX0seyJ4IjowLCJ5IjoxMzl9XX1RMQsQAABYgElEQVR4Xu2dCVyU1f7/PwoDwzDDAAMygGyCkrjgkmKpWVouaWlXrZvWtcV+2mal1r3Zclu1f6aVeS2vlVFpi1lqmeKCuZWYCihgKggzbIMwwAAzDKv/73meZ2BYxQ3Ee96v18MwZ848y3nOcz7n+z1nzrdL2A3Dz4PD4XA4nA6gq/TK4XA4HE67w0WIw+FwOB0GFyEOh8PhdBhchDgcDofTYXAR4nA4HE6HwUWIw+FwOB0GFyEOh8PhdBhchDgcDofTYXAR4nA4HE6HwUWIw+FwOB0GFyEOh8PhdBhchDgcDofTYXAR4nA4HE6HwUWIw+FwOpouvnAJmA5tnxlQu0lpAv2gpjRtr7FwcXKR0q4veCgHDofD6TBc4Bz2DAaPCoVrFzHl3P7HkHhK/B+YjsjZY9FNeld6agOO7t+BKun99QAXoWYIDn0VQzQmnD7+IRKtUiLnmmb6WzswLtCM46vvwYqDUmJL9J2PedMjgJR1WPHdHimxOW7D9AUz0Rsp2LBsOU5KqRyi2wL0vYPKMG0dkg7FSomXgfdcRNw9Hr19lHBg76srUZx9GId3fILifIOQ5Xqka9gruOXWQMjOlyP7yC9IP6tHtfUvVNWpjBtkKj/Ifceix+B+6OYKVJ3dhN9it0qfd364O64Jg9CjRxDCAtSo4gJ0faLWIiwkEGF+nlJCS3jCt0cgAntoqSngNMBVi+5BQeje7UJl2BZmInLmNPQlAaoy6qDX6WCsdIJ70AiM/cdr8FFI2a43uoxFWBQToBKk/fxPpCTuQHmpvQAxSlBFaaWnVyDx22icLQVkPcahl5/08XUAF6Em9ISGtTglRuSJCRwO52rScwC6k9BU6jZjy+pHcWjdo9j9wQPY8usBHNryGvIsUr7rjR6D4OcCVJyNwdlz5VJiK5w/gLQjaaiCC/xumCgldn7a2R3nBp/ApzCxTyh8yKxkVJsLkJzwBX7NbejsUHo9ibsi+yHYQya8ry7SIfbQezhqrq+RwZGf4P6eOfh18yH4RN2FSOoyOVK66ewv+DL+J5SJ2QgF1N0exp39+qG7uwyOku8V1VUwpf6IVUk7qNO7EM+N7g259FFjyk5+gY+S90vv2koYwgcuxN9vDIRG6QSZ7bjny/Dnt1Pwea70nlAEvIYnxwxFD08n4X1VoQ67ti7BlvxU4T2wAM/Pn4Aewv9lOPjlEmQOfRFTw5VgJWTRH8B/fnwNZ89PwyOz52KIyoBtq+hBrhC+IKAe8jXeGamF8fAyvHxgm5gom4mpd0/HqEDaDzu/qjKcOrAW/43fDFtJh9+2Cc8OVIpv0rZh3mFPPH93FALYPawqQsKv72F1Wpz4eVt47Gs8NiVYetMcGdg38QHUucXbQJ07bmcyvIcPhS/rPdeaod+9Fu99tUW4lqjnfsJjA6WK1wyW+NWY9/5GYPi7WDFnANWaFihNwJonX4BwxTM+xafjA6HfuRK68IcxMlDcvyUnAVvXvICYNOHtRaKF6/DXMIzqjburk+CeqrEUIT3+ayTu3YwaliVkKcbfP1Cy0HTY/+42uM56hJ4Byl9bCeOpLdj/0yeoFD7XQj50EYbfHAGNdFHmvHgc2bIMeQ1cXQswfNEE+EvvrOYiZCXYHZNwu3sTxveV6kIzlCR9gu1bfpDeEc4zEfb36ejrq4QTdXlrKsug/3MtjtntE4M/wZRxYag9vQ5bflgrJbaA42j43vU4BvX0gCt72KvLkPvXdvz56yewVotZGpxj5jZ8f8gTI6m++jqz4xchded7SEyku3fzZ7j31iCYT67F1p/WifkFHkbkgpkId0jF/uVzkSvsty1laF9+ZUhatwRFw17EzaGii9GcfQC/rXsNZuk81beswtBedPe2PYHT2WLahZmIiFlT4F95Ar9/swJmKbWewQj9YClG9wT0G59HzOdHpfRrFwdPr8DXpP+vMqGIGPwS7u/rA2XXEmRnGXCuvCvcPTzgF9gXTvoYpItPDJR+r+Kxkb3h5VSBPEMOCqpc4enpiVC/EGSl/o5iIVdv9O89EoGKaijUQxHqmo+McxVwUivg5qmlO1C/P03YW5gbFQp3WQXy83JgKDKh0GRCOVQo0q/ByTKyf+V9EeBYg8IqJ3gqZCgr0EFfIOZjW5p+I3TlFzccGDB8NZ4f4Q+lUw2KDVnIPGeCkY5tLCpAdsY2nLK18j5L8eZ99JC41MCop3ym81BqtYjofyPkx3/ESeGwPRDYzRMVNQp4uTqgsLYHRoU5w6A/h2oXd6i9AhFYcQL7c2NRoLgLI7t7Q25h720PyEBMGvU39FAV4c9ti5EkiNM0PPDQY7hV64QKow5nc03o4toNAT2jEFl9CntzxCdDobwZ3ajJkKmUkJNIefW8EX7lOujKHOGlVkMb4Ivso9vQZs+972B4u1NnobC4hU2HzO2xKJWyt4U+ox9EmLoKqm4hkFv1yC2spXrhBs/QAQguWY8/0qlxCroJ3WXlMJkdoXBzQq3JgOzcQpiKTcKWc/Yw4pIzqHXoh55+VCbF1DtV0jWTmOXqDSiS8pkM6Yj/4w8UsAP3uxt3h6kh69YHYcpK5Gblo8xRDU8vLfoM7Ie8bTvR5vZFQEuN6Ce4c6gWCqqPRVRvCsrOw8XdA92CoqBxzoLuLF2MU3/INU6o7uoOlbMVpepI9PUpo+spQxe6Jx7dwtClYB3y6CQdhn6Iibf3hMqBGmx9LooqHOHpE4SQ3jfAcGQbymulQ2tuhNrbBeVU302Ux1WlRrfgKPh5WJB2KkXI0sXjZrh0tcBU7ggXlRNqSqgMDUaY2HdoK8g6jHNZdH4C0xDx+GOI9HZCVbEOOVT/a5Xd4BcSBQ/ZKejTpZIxh0MzqCc8vXtA1bUaudkpOG87pwYMhO/MVzCSNerlBmTlGmFx7gbf7hHo7u2AMykJQi7xHGtwnt07EqnzYTfC26xDHt13Nyob7+5UXw9tgzU3CIqoG9BN5Sy+F75N9HkEUX28UauLxZHjR4SktpVhDzgHeqKKnlG1wgFFXXugb4gzzmWfQxV7Rj0CoepyAvoM9qS4wKPPJPioziFz3x67DvOFKINT0G3w9qhA4bF9zYjQTej1wAj4uDigq+kkkvZd+yOZ7WcJ+SzCcyNDgaxYfB63DtTOirj9Hyb7pGLrmVgIHYQu91DPfBJ61erw6/Y3kCg0wKEYfssi3NLNgqMxT2OH0DpNwtTJ96AXmQFlqd/h44Qdwvcjh32GO7vb5xuE0Xc8iSh1DnZsfAVHL3C1Pr0/wiN9ZDi9fy42XqY/bsLUXbg7iKyebxpaPQ3RUr6vpXxzKZ/YlMuCVuCdqRGoiv8E/9pj17Ps9xk+viMIVaUp2PjFPOxl5UN5l9nn9Xwbbz1EDZaOrJaNy8SZNM6LsOiJ0QgwxmHxly8hk5JktK8VtC9T4id4ZfcPYr4uD2PO/83EgJp4fPDp83bWiGRhuVQikyyGpQc2U/6BmHr/Utzuq8OW5Y9Csq06BNESIgskcTX+tWyjYPkoyEpZQVZKnYVjQ7J00Di9CVMx7z9z0B92lk9jJEsIlhRsmP8sYoSOxVDMWvoWRvqQ4bhxLJZsFnK2DbdFGPkU9fYrdTj42aPILpLSPRYgcqwzUjcurutJM2y9/sq8OOyMfkn4zGH015g6TIvs327Hwd9JCJ6Zi77OBhxa8wD00v6cKM8UIc8DlKeF7oPjNPR9ci4iXMnSWvwoGlRhyRJDY8vHHsnSKEmmPJulPI5kZTxFVsb5eGz/8HmUiKlwilyBWydEwJ0NENSSmB7fjqM76q0bAemYcupo/bp2sWTlRSHksbcxxJvK610qr7r8tuumjkHSauz/ld2EgZR3qZiXriebnj3fmV9jJD17SfSMpkja6X7Prxjb2wnpMbfjT8GQuMgylK67kupE3MfzkMs6fH1W4O7JEaisK68o9LhvNkJVeiR++ibOCV9sG90mrEGkfyvf6/8Ywm8Ecr5bg9KmKnXN0U5jQn6ICguFnKrc0eN2AsQo+S822wSI4dtPEBbjX5skAWKkITXfZjZIyP2gYX6oqjTsThQFiLndHIUrssBa910DRA+eH2657VWMDRgLjWNLjhYFunuwz0zIN4kpl0NJOXtMlBgy8WvMGbGAKn9UMy6eEfBlY7sFydhZZ7XQZen2IZlEVO0ZJKU0pEoXLwoQQzcPC5bfXi9WhbuRxLrpgRG4XXIBqvtEIID+N5z8QRAgRng3Df0tQsKfkgAxzq/FwVTql7l5Sq6/RsgKcepPJkCMeGz85nY83sECVI8ZqX+KAsSw6Arr/r/aWM7slwSIcRgbjov30iv4buG1zdwQCl96MZ/ZVi9AjKJlSPyuoQDZY0z/oe6zmtgH8P1iJkD0xrEXPFyByswDdY0no3JfimChqbxGiAk2nKPg2ncBAkctQuDwXrAWsD66Bh4h4scXg5u3WL9S/7ATqeq1SE+nfbp6QiUlMSoT52HH+x/hUFoRWSRK+A+Yhruf+Roh/lopB+HnK7gfs4/bBIgRh/QUVtYaqAPElAY4FiKLOkwi8UhfczuVDRMghgG5f6XSvpQI7DdNSGGTJIKCnICKFJy1ebIutgwlarPiRQFiJM/DFronLQr2leT4Gpz6vHMIEKOdRGgkAlldKs2od0G1gI/am/5akJF3XEyQUCvEsaE61F5Q00t11nGk1IkamaHu9GLJh77Ots5B3KH/YkdaAarVQRgcdR/+b8pHeH7MIkTIG0vCYHFSQpUJhiswM+7gttXYeMIAi0KLAUMn4JEH38ay537Fotvm0iNjIwga9jR6RWHR/F34uG5j4zpijuYoKRJdD80Ti4P0MKNLEPr2ZQWvxc0h7NWApOPxQg5GgDvzm3tg1Gz74+7Ck5Et+/xRXgi93TjTJcHGhLYeaGX7GuFS1oumbqChnWnkPrLkiAIo69qo3l4INs5BFBccEP9pE5Uoyau/rw0I8BAae6eQabh30a767YXRdWM/NpyoB3/3grcx8e4JGDZ8tLANCmqlLlwAlVS/BlH9sj/2+D4t7LNiM/TfTceW95dhb1IRKp21GDJtQd3MRDeN+L2QcQ33d+8oO6FqTEUhSmzmVnMcTRCsJ7eQKPE4IQOE8UQrdfKMQgbiIsrQnqLC1p5RPSraMBehKS7oahtbvk5oJxGiZ4sVnMlwwRlnWrUkDA3cZv2hdaeHuSoXGdJAgVqlFp7XrHN2v1Fw9IMX+3pJQcPxiZo4HI3/Jz766Tmsio3F0SwLHD1CMXnYA4KQ1UPWFavnxhyqIleA85uxa+cDWLDidiz45CN8vicemWVOCBg4DXMGDZQy6WBk11RhwME9sdjWeDsm+uIbY7G20OhIZB5JFsogIGQ6ZF1mom8gvclOwS47AcksZr3cSmQea+a4ew4gSczWkKqKOhfKJZOjg/5MRiub7qLGg64JGj9JPkrB6q2qrbMx24ZkzWh8J4j/tIlKVLXUucssEsvSlIpDB2ObbInJ0swJt0WIujUI8pIU7F07V7Ck2LY9qe2jFY0plepXbmLT4x46eKC+kW9MxTbkbVmMxHz63zUY3aRfapYYxXMpTmtuf7uR1dwOqyvqrfxm+QRnz5JdRcfxJRPUrV9PEqNK6JLtJki0tQwbUdvqM5qLcjYWDW+obL9EbRMjmZOCVNKCy+0LXiu0mwhVM1HxDECYvYp38YO/z1g7q4DuszD4r4BWEyomEEq/KRjsQeVOVs9pKc1HzeTDAmOx3dPn5iXsy1qaUz/I2IASmArXYUfcz0hhX1O4UT+tfbBYNuPP+Oex9LAoj25q2/X9gDTmbHf2RKBjMrbFL8YW+y39Eh1d1KtMov3Kgvrg5r4R6EHlnnlmG+y9jEmZBnpAnaD1cUJSQqPjxq+tc9tdcba+hJhnH2hle4ns16sIVTGhlvn1QX0ta44qVDMLRxXEvGStoug5EuPqDOuhmCGoPlCQsUV4bYDX3xA8dz40XtJ7e/5KE8Ze5L0mI6JnKz38tlJ9CHnMhaTWwqN4N/R7FzfYctOkhlLjATavr0S/D3m5thmZE+Ab0ILVQuXCisbNpy/VoOYpyTJQc+4EjdYJxoMNj6vfu7b+GfWeALmz9H8dWjgJO65AjS0jdU6Yzrh7a2E+3nh/H7Vu8bSC8WQqnYsHuvebi+4hdL2WVOjsx/PbWoYXSXEBexpd4B3UT0xoC3790I1N4TXqGzzLnZl2mpjgh4ihr2JyIFkz1hJknCtCtZMHgr3d4OhQhZTf5mKzMNWIkCYwyM9XwZibg1InbwQz86bCfqJCb9xy60IM96K0HyhN+CI9uMH/D8/d6IWMuKfxTaYoTr0Gf4KpAUyY8pFVyr4sg4cPWTxU6U3JX2DVyf1CPpHRuHPCTETS01hWkAODpQou7NfK2f/Ff/86JuVpK1rcPulz3O6RC4P0cCjcNNB6sanQlUjafCf+Y+tAKRbg+YcnoAedU5W5CAb6gqCRHs44+8sD+JaVTcBreHYQXYibL8K9nWDJ1yGT9luetg6rk5r/xbp60Nd451YtLGbal0KHLR88im0N7nYUJkz9N+5mPvDqMhiyjTCxnrhCA7V+LV4/yHzpo3H7HWRJKZyhDdSS5ViGTL2Rzi8Tv21+Da05HNqTZldMaHECgjThgPlYyDrXF4ojDAprCt5Yslwoext107rZDDmdURAvmaoMx19+FhtYRmligqXUDIUD9frzqM/sGQhf1keyn8ptR+gHB4QptDjzC9Y8+46YaIfbnRtwxwAPYVqv1ajDOckYcfWiZ+XDuaJIDVuBAaGukHkEwdeNGrRcHUroMgqOPYrUxhOiei7F2OkDwTzVlXS9hmKxD22/v/oJEUVIPRGPghoPBPQZCEdrEXxIoIoz43EmPhbpSbZOkTRYT0UjzJArkvZZmYLdG5YJ/7P65T/r3xjuL9YvY74RZlbUcg2cs9Zib4w4VlM3uYLqfn5BieBRddUGCc9oZeY2/PzVMsnLKs4cFKZf11aiOD8XJUygnNzgbtmH7d99RG/oGu6ZiSCqr27+WrrmMuRSva6i+vrXutekmbWNoWf+2YcRTpJpVjihprnJFm0pw96vYRh7RpW+CNQ4wUz3jhlvZS2tKuE0AwMfvA1eVXokbngTF/6pUCi0dy5APz8ge88CpKQ1/4Xwjw7glh5AxlcjsPNbKfEapp0soRyk/Plf7MgoQbXMDcGBQQjzcoEp/yR27HijXoAYeR/gyzgdTDUyaPyChN8JGTNi8fmvNgFi9KcHg15KTQ3cblqbdWSyNSO9qZ9RDmu1DHIPP4Sx4wb6QV1ZgJTDJCwNBIgRix2/H0M2NdpKLzG/j6MJeSUtjAa3ShS86HTU3kEIDxW3ABIgFOlwcMt7+K+9BW9ZhqVrf8BBHdVYZ3r4bfnJ7tbYfpDuHiDuhwSIoZD2G+Ld8i/WTckpyCTRUbAurj4Fu5p0N+KwbePr+PowPSw1SmiDpHPVKuHmJvbk2aoBgUI6CRAb3pAppfMLEAbQOycb8enKjTieY0aVSovAkEBh86KyvEHKYSNu9QpsijfAUuMKXymfr6cv3PtKGWykbscvmU5CHiZAloIU/LJyebMz6ooNhdJrhvDamJJfn8bWX+OQbaqETBMklD/b3KnsXaVBCKdudC6UxgSI4e4r5vFpzrQ/8zx2RMcilbWI7Hqb2R9KFiNuazxyz3sgbPBoDLuxD1wLYnEkNkNwv7oHDMSQwRFiXoEfkLL+ByTllaFGabdPT0/BohKha4h+HbsTdCiuVUIjnWOgjxLquvpFjbr+DPR0brVU9/1t++lC4nFyM3Z+YxMghgElW+Zi695UGKn9VflI+/P1gFypkY7rCQ96bgODSICYv95RCV9hnwF259WYddDpSB1JgFxJtPQnmpk80JYy9AgQ00mAGK7SvWtxVYnK9Th9gkrXKRCRdy2Ap5tt9KsZZGQBjX6GBIgewqJjSGtBgIA7oBIutBBFF/NDuw6Erx3H4VwONkvogtO9OZzmCIUXicvAHuIK2bVVVcg+8ATzykpMwQ0PjIW/XCZaDOY0xG96BwUtWk1/x/BvnkKE/DR23vMImu/mXFu025gQh8PhcBqThoLYf2L3lh1k3eTC3OzszmqUZqchbV80dn/bmgAxguHODCpjrugi7ARwEeJwOJwOpRy15zbg7J5XcehreyuIsQl/fT0Ph7e9g7OnD6D2Qn6rgRphVmZFfkanmT3HRYjD4XCuF5RAjbUSebqLnUjVcfAxIQ6Hw+F0GNwS4nA4HE6HwUWIw+FwOB0GFyEOh8PhdBhchDgcDofTYbRjUDtOx+GCru6joQmNgpscKCu5mOglnE6DPBiqoZPhGdET540pqGp+AUXOJdD1hmnwGTwETi4mVJwrbri+cmdGHgn1iPHwCB8ApZrahtzLDKJ2CfDZcdc7qim44c6JCLCFhcjegZ3bNkhvONcHaqim/RsDorwhrgNqQdp/5yD9jPCGcwVwvX81bhokrVBrzUbKmjeQo7dfZbAT0vMJDHroJniKqwyhImk99ke3f2QwLkLXM07T0e/vY6GlSmbWH0DykThYy3NQUd50uWHboof6jSMQ87mU+D+PIyJf8Ec4ihDzbskFVy3uqDJ0vXclbhpC3VhrPnS7N0N/OgdV+WdwsVEkOK2g6glnnzBoRk1EzxvUkCEfp1bMR+ZVW2q+EYqn8ey0KGT+uhAbCxoEqrlkPP/vcwzqKUNpwnok7NGhtjQDVaXtL6x8TOi6xQXqYSMFASpNjsbvO6JhKvyrWQGqpwxlnWGxqXbDEdpQd4SFuoCtnt822rkMNbPRkwlQZQYSP5iPM7/tRUUOF6ArTukZVKRuQ85nT+H3mGxUwRvh02a1YwPqBJmrFrff9zYmuF2BEB9EjbCkggUF8duozqR0iAAxuAhdr3QZB/8QF+od/4WThy4cpbO4UIoXwLlkOqIMnW8bABaWqDDuS+S3GCWOcyWp2vUNMlh8Ib9I+PuJaVcdttJ+9DacRRDufpCEqC521aVjSiPLBwp4RURKKR1DO7rjtOh911OYMZYeGhWpup386bc/izfW20UQ9ZyBWQunY5ifq5ivygz9vrX4MHpLnUtEjB8j/m86uhKrssbjibvCoGb5LXrsX/Myoo+yfF9SvkqcjJ6EZbvF/ALjP8DHMyKAtC1Y8PpKMYaM4jZMeWouRkd4QMH2w2LIJG7H+tWrcdLWSZBi1Ih1QI+Yudvg/urDiPIjk6O2EgUpP2PNu6vRfKzFlnEIWoRBk0YgUO0kxJGpNOlwbNNL0GfXm97+s3ZhuL8OhzYYEHR3FHzZAEB1GdIPrsWfQuwfO/wX4JYJNwCnN2Dfvh1SYstoXt2Ov0UBKcvG42Cj0Cc+C8Px6CDJFjibjsU7ZZj1oD/8FV2Ee5P4Qzq2/iytvKhwRJ9ngjGmjyuUQhlWIjshE5tWlaEuwgZD4YTBi0Iwpoec7I3zqM7Pw7pdDrjvfm8YtiVi/Vcskxoz1gcjuNSAz+bk1UXljVwSiYlBVhxddQoxdvrqeIcG9/7NF8FqVoK0T1MRdn+VhaO/N6zi6snemDi+G7qrHOFYVw/PI2PbCTou5R3hgyefYLGTWqDR+dhorQyvDv7wW/AOIrT5SHl7PnKaCZbTN1iBu6I0cHToAktFDTb9bsSofmr4aZxxni41RW/B1sNGVApRJ4E+gQrcNsAd7q5inPGisirsPFaM09n1q2Y6OXbB+Bs90TdIAYeuXei+1uCPkyW4LVKN01nl2PTH1VHD6ff2xJyBUj3MyMAD+5zw3r2+0MqpHlZakPJzBuYdkeqhoyOevjcIY3oroGSXUl0Fw4ksfP5jGWIbRGbpgsl3+GLmUDU8hYw2rIj/8gyebxybScJ58nKMHOGN/Jg5SNx1kRaEz1K8M3Ngy/VLoAJGszM0LcWfqNBhy9pHse1yjBfZDEQungDv4iM48PaHLQQCvfrUPYJXG8XkVzFv+lD4UiNbVaiHPr1+Kyi1D2E9FU+8/hBGdqfSLxY/N9W4InDMU3jxkaFSHsCYyT4rEsRDoRiBe+8kRcrRI5cFKFMEYuT0h+ELA7bGp5LaOyFo8AzxixLjBoaBhcfRJ0gChAGY/s8FmNSXBMhsEI6ba3aF78CpePyZhyTRIUwGpLLPBDV0gu+cexGlKqT8BtqPE7z63oUpY4Scbcf3bdw6czRCqGzMeTro88rgoA7CsFnvIaRJfBhf9JsYBY8yypdbBGtXJUJGzUFkb+ljG2q1MEhtKmgcM+nisWabkHq2BCbm4nF1wbi/+UNZTGk5VG1lroic7INgIWcX9Fl0Ayb3IwEyl9B3ipFtlsF/UChmPWf/NLF8vTCOCZDVjIyzJmR19cKkscqLcHs1goRjzsPdSYDOU90oRmqmBdVqT4x7KhhRYVIexj0BePQ+P0GorEZ2XZRX2EqQXSKJlamczklME665yvZe2tLKO+yBbUgYXFixlubA1Hy0NpRYaqE/V4ESc7UgGEPDVXAjgckuqEBNzXn0DnBBbxIeBhMgJlhq6kgYiiqFzd1Vhik3aRCirb8zTIAiQ1xRWwtk0X4qKmsxvLeKBN0+bPKVx2gogT6tFGVMRFxcsGCiL5RFJnoO6G44KRBBHYuZQs4uWPBoL6qHJEDWUvpOMQxWR2gHhmDh3xXUHa5nwl098PRoDTypQ1WWWyzkFTcz6PJbpEKXLywQqvC+BCui3ID0NB1OtboVIDuzuXRxMzKLaNZnl2kRUfvBKrJMIbSFHYW99F9V+vXwFS40d+c/8MpXLQ+sKWZMwCDqIlgSV+NfyzZKFspDWLB8BnoPnoaozw8LgcJiV89GLObj1S/HIzCsJyp/fRYLNrKwxJT3v5RX5QFmKMVtS4H+zjCEBg1AFNZLQcZmUC+OLJeqVJywGRDDZ2BkCAlk1h68t2iJZMkMxaylb2Fk7xGYqPhCjKSZtBwrkmwRN8m68zmMVc+/jGP0me8jX+LNW7Vw9RG+3GZ8bo0SwpLnHnoJ+2PFM5SP3YC7b9Qi4taZSP9pnZAmQud45iNs3Sqd+I2fYMrYMPj2nIbEk/XBuFzVLAYkUdPquu91lP2xAwfP0YPejAln+saA70kexq12w2BPb2iP/oX/rGBPaBdEvd8fY3ycxF7diG64tYcDqunhWfXPYojOKQfK05csI29EKshqYmXYzxMjKB8s+Vg/LwcZYi8AYS/1wb32sd4vgsiJzHIh62g1WUd7pcQJfpj3oDdunCJH3HuibPiEKgShy4g5jvXRQlJTTpRgKws2Zrtmsr93v9zU8mlMa2V4daDOAJv1WCq+aw79OSvW0caEpE+wK1zlDvhsuwGl5TUYTRbP8Ag3KCmtS5cuGEIC1YW6pT/HFeB4unhTBoUpMX6whyA66QYrvNQyhPq6oKKqFhsOFAhpjLGDPBB1g20K5tUhdl8ebXIsfUmFgRov+MafwtwfycKhevjas32pH+IkCkyYN0YGU/3KysRL/ymWnvkcyhOBEVQPZzrqsEyyhiICWCtehfiv/2rR6mkWcxUuJdSlQMkyrG7kuLhYZF6vYdH9I3D3Pa8had1rFxWKn003D7jxRvhF+MNVVoXC/b+1VoWuOu1mCZVYxG6F78gP8epzr2LSrSPg24yKD/ZlrVARTsRIAsSwfIHDZ8yAylMQlibU6JAkCBDjCyz7v7GYbQurbFmJE3p6VfVE1HCWQIwZiiA6dlXqYfwiJSl6aAVrRx9nEyDGYWw4zgRTQxaRmNIY0+kfBAFi5H7+D8z+x1i8sV583zYmQyM0vAbo9omPC8N6KFmIB+KqjWhkHZQhK8WuBhtLr0ivvGLncqR8shxkiLWOzIy/frJ1Ec8j7rlELJ6RIYZYD3UhIahB2iGbADFqEJfAzEZnaAeJKeirFES37HRhnQAxUvV0jy8JObQseGV+AQ7ZBIixrRCn6OlSszjRElaL2HQEjwrDvQs9ET7aAfLL6k3W0+Yy7CCYoXKWRIMJECM2oRhvrtfjYEoJVC5dSaC6orC0Gmey62tUak45TFRmHpKryptEyFnWBQUlVcjIqw8WkFNYgWqyrNoNRwtSdzMBYpzHax+cwO0vkrjQO22gC5RU71KP2gSIUYNPjrOOBQmVaLYLlFlYWcgw8G/BWDFZhYdDHci+vNbRIrzfAGipV2/KSZLKoO24DLwDPSP94VKZjfRdG5C84w/pk46h3UTo5OplWL9PD5MDWSgDR2DKI6/izU92YNnrL8I2/Z6h9WD+BepVvbADn35Zv82KbMk5SpgKcVz6tzl+SWAuOVeEDZ0qvI/qH0SCU4nU+C+E94x+XmIvLnRqw+OuuKO1mSiVyM9JkP6/VKgmsSEMMu5r7LtWJaWoZa9OTvTYXDzl5ktt0C+AtQJ5LXS7fLxZY++A8OmRWLTebhvXyPvtKLptCpgb5YrgDA27fd7d8aT9cdeHY3CjzrlpVQai9xbC6KBA2KAATJ3dF/M/7Y8n33KH5gqJUftRBMtFFCFznxWXNj9tTkEC5OLkgG7uMiyc1h2vzAgUtmem+MNTVe+scaAWg4wmQazOs0GljoLqoa6FOfMjvdgTQ2IyuR92Lanfvr6jafjs1V+fweYTpSiTqxAxLBgzZ0fgk7d74+t7FYiS8jSL7bG9FNiY0Pxd+LjVbSvemtNcOtu+xpMDlTAl/YCle36gtu3iMH8zB7teeQV//maB1+0zMPLpJ6Tfl3UM7SZCzKqI/XQ2Fjw6FvP+9QaiNx5GWmEl1CG34aGn6sdrDEWs8axE7tE9iN3ZeDuAZsOmV5S1HkVw82Gk0sOqCBqI/piKqDASNEsq4rdLnxMnCkSD1HSquePuRnyzvdsqVF22HUtVSOiYOsPB3jnqphJvTmUllcbFU1tmEiqnSjNCTLhSVNWgJQdfXr7YMzae0iEmpvGWi6RGZejhfSny2hwVzCCkhqkEcU2OS9s+e0GuQfbqTKyedRyLFyYhekMOko21UPcIwsxnxBDLnQcdrOzSVF6w04kWqSXRqGzBWrFYa1FeWSNMXmCTDPYlmRpsR1MbVnS1NHGhw6iusbO2G7K/QHxiyk5lIja28WbA4XzhY5HqKny0PgNTXjmBue/+hXWxeTCUs/GjUDw9ruUxrq4hfoKHoryEuVkukssYEzJKD5/l9GYs3fEJLnkKiDUDpb8lQuiTuCjab1ymGdpRhOqx5BzA/s0vY8mPKeLEArt57/tTc6nxdIKXrwx/bVyC9V/Zb1+0avG0zBdISqeK6dkTUZOjEEa9Y8tZEkXpU4YlXo8CelVrfWD8vfFxV2J/lpjv0ugFzd//jeBRvaT39myGUahJWgTdUt/3kg/rA196NRtSLs3dlpUrzCR08evXfr2cY6XCQ6HRKmA6WIyj0fZbCT1UYjYkiPnU4Z7wt7M+NB6NRakaJnbxMhlUtnwKN4Q1mRZrRUYeKbncFd1llkbHpW1bC977HBKkn/Kx+YcCoUFTujU+fi2qmTmqUiLsmvTRpKAkl7Ui3eAZdXlmXImlBiZzDeROXdGVTJ19J0qw97ipbrONERmKqmCtPA8vtSMCu9U7itm4UterPDGhrRhOlqGQXpVaFxiPFWPxTvutFBtasKBS6drW7jyHhb+Lv6VTqlt6cvzRrZc3vVpgOp0tJl0MwpjQo/ig1W0WPv7V/v1L+DaD+qbUT7KkbcPiXz66dAGyERkBT+q8VBnO4Cr5TdpEu03RjnrqOzwUXiHOXmM4a+CrFadgFxxcgn+t3iOmYyimv/UqxgVSg1BrRkGOERb2nFF+hW4t/vXxFnozA4+9PpoaaRW8QjygsBRBn0c9tZIUbFi2HM2OL475ACtmRdAdrIRCUYXjq+/BioPSZwJajHzuY8waSFZSbSVMBgNMrGMvo2OY92Pe2yuFXL3v+wDTI5SQeQbCV02WU5ZemEGVu2821thPAbfnka/x2FTmiM5A7MQHmk7f9n0bYx4WJyeU5OlQTP/5+yjhUG3AoTUPQM9+k0CIU7TLkPTNFKSki2kIWYrx9w8Ekj7B9i31ExPYLDrtpDfQT1uFc/uXIfHUpY6WS6sGuHWFd4Ab1GQHZWRWkDyU4fDLRrqihvgv7IVZg+hJqa2B0VCKIklEtJZzWPG67YeyXRC5pA8mBjmQfpiRkVOFajkb15EJjVlG3RRtIPyNvpgaRvlKS5Cafx4efg4oyHJCOKWZdPnY9V0eTjGPaJgaM14JRjA9VNUWM7IM4sCxi8YRGdFp2HtI2B185oVhZu8aZJH1IyB3RjA1Vmyqdt6BZHy2qqFg1U1Pr7UiO8MqWIGOqiokvkgWlN141sUgTuVWonjv69jw7k4p9RKJfBEjHoiAvDgRf7z7Hhsvb8BNvVXo6aeAh9IBSoUj8osrBRE5cqZUmJ5tT4C3M6aP9IKrswPMZBEZS5jLDcJY0R4Sor8yxfxskkO/EFdUVZ1HHu2vq0MXYXqzEz3MyRnmZqdo21aTyPhqBHZ+KyVeFI5YMMMXfRQO8AxSQUl3wqCrQCUJwe5PjbCfusOYfm8Y5gwU62EZtQ2F7NSdneBpPocpX9RbdQse7Y2RagsKS6T64OaKQG9mVtYgdWMK5h4RkxsQsRA3PRwJ16Ij2L/4w/YJox2yAsvuiYBMtw2vb1x2+QJEyO9diRFDFMj56RGk/C4ldgDtZgn5qklw1FoEhgSKmx819uYipO1eiSV1AsQ4jA0vv4ENh6lxr3SFV/f6/Gp327QELXyF/ZAAsbcKDzFPDy2aen0ldh+GjiqiQkHiVnoGcQ0EiGHA/vcfx6qdqSigboHaTzpudw/SIU/0l3K5+QUJ6UyAGGrp/HxbmxGXkYtiVscL6FVMaUjuS/htXSzSTZVw9aH9kwDVmHQ4tG5hnQBdPLkwxB1D6XkZuo14Ar169LvEmy2tGtCDBIg9mzIXBPdg71XN/s4h+73TWB1jRB6VocaP5aMtQAG5SiaIrMh5JL6Zit2ZVhIfV9qfGsGuZuyOa+pgOfVhGg7mkDCoyAIKdoX1WDYOCQ2GA9RBWgzuJ+ZDqgnraZ8HM8ulfYrH9lfJ4c5MSgkvD2c4qmlf0udhfiQwZjOSd55EdCMBYuStSsPGYyUoq3GGv/SdYI0CXrYKcQmo1ErhtVh/mQLESPwSf6WT8rhH4sanZsO1zmQU8XF3QpCPszAtmxkqPmRtsve2iQb2ZOZXYN2efOjzrXAmQQns5izkZa43pUv9CMivfxYihR6mrlShuns5Q0WfHc+woLa2pf7sHVAJQ7qFKGrWn94WqB6GuCMwlASInbqji1AvA0OV4oy4Rmz4PhUf7TQK4qP0Zflo6+4CJ7J2J0h52MCOp6oLlN5u4uds83ZEZVEJ4n48jdeaCJACXQc8g0EzSYBQhZzf1rSPADHSV+CrX364YgLEUHqJT3BXh+ae5PaDrx13nSML/Reibg2FC/OUnK9Cxdkd2Ldnk/jhtcaDwVg0Qd3AErr+8EXEqg0YHlSI+JfvxpF4KflykI1CwLOzEN5NHBiqrczHmbXzkWmbMNoO2H4Ue5Ksq6aW0N8x/JunECE/jZ33PNLEeu4MyO9ZjiFDvEmc2bsqFB6IxrHN9lMxOyE3v4pR9/QUfjpTZa2C5UQ0/vy+/a+p3SwhTsdQlfYODnwVjcTkNBS04AvntCej4MF+gGzNQc6VECBG1V5kLn0O+7/ZC11mPsolz9K1QzDcmYvCmNv6BKJrnbJsGBL34s8Vz3V+AWL8/h4O/XAEmTkm1LJpTLViJ6a94ZYQ59rhf8ISegp3/PR3BBv34svZL7WfO+cq06olNHAppr91E1yOR+PLF9dIiRyOCLeEOJx2xQk1tZUo1p++bgTogiiBGmsl8nTHpAQOpx5uCXE4HA6nw+CWEIfD4XA6jHYRIR+/XlC4NlkOmsPhcDj/43BLiMPhcDgdBhchDofD4XQYXIQ41wYO3eHnMw2DAifCr4PXxuRwrjqK26iuT0N/TSRYYNj/ZdpldhwbEyo15cNivuQ1aDjXLSoE9ZqPyZGe0sNYjmPb/4VdtmXmOJzmUMgx6o0gRKIAG181IrvhMnjXPv7P44Xh3cX/a0pxfN9n2J5vWxDyfwsuQh3N8HexYs6A+vDhMDezuOrVYBoinpmLvnZhmkqaLIJ69fHp/RZm9VMB1kIcPxqDP4x5qKhIh7VxrRz9If6+YDBURUex4YFnGq3BxyKgNo0dJITlPpqNLSvMLS773+m5Q4N7RymRvVeHg1dgKbpOwwgfPPmEFE131SnEHJDS25NWf1z9L0zcOgl+LS1aTJa/WtYdQT1uw4g+Wii7VOP03pexKa9tkZCvJ7g7rqMxGZCaroeetoJ27c0Vokivg15Hm/FSIhZdAWT3446+pBwVWdi+7XVszz4Ek7UZAbKnqIVFYBlMdM4WI1XYSmBycEHwsDA88pKd0l5vaFXCoqpBrcVevB45UICYQ0YkH8rCwY4QoLZSYmy+vtZkUV0/hOMpS7BqRwpMcESvGx9BkPTx/xJchDqapOVY8e/ZeIO2oyygUbsRi9yfHsWhdbSd6JgVvTQhfeDXBcg78QOONwpB0IS4wgvHwbeasPtlHb4XtnT855l0pNJ+lb08ES5l4Vwv1CB1RRY2X7NWbgaK2+pSNn2JfenVgGsPDGxtNf7rlE7ujhuKcU/9H8b2D4Raiq9VZdLjxI51+OLnPULAPAHFbZg052GMjdRCwWS31ozcxO344v3V9Way5BZD/EbEKsZjUrjYe7bkJGDrmhcQ08CeDkPUrPm4Z2ggvFT2gdDMOP75PVjxm/QWWvS+az5mTBwAX8nf1vz+RKa/tQPjAlt3x6nHvIqFU4bCVy0el13v/vXvYP0fl7Fk8s2f4d5bg1p3xzmOhs+dj+DGG7QQgmpWlyH3r+2I2/JJg8ivDr1ew7CxI+DPFqysrUTusc+R4vYIxvTKxcHFj6I+BJgWQ0a+iNt8C7Hnx9fxZ9MoCo2Q3Btnf8Gap9+R0mxI7jgY8NmcPORJqYzIJZGYGGTC1hkZSJTSHJkL62++CFaz8ATnUW0qwu6vsnD094aPgvIuH0yd7AN/BSklXUsq3TTdoN4Yo6g/ji3eUAOXjM1VpMvA4hftVo1VOKLPM8EY08cVSqEeViI7IRObVpXBZG8Fa5ww+KlADA9SQGk/al1qQDQdl5WheF1icnNc/Pp7asxYHwwW9YqNy8WtSINhXBgmhsupj34eZbosrHuzEEbpPNtahizkRti8AIwZ4AaNcC0sbwnitmdh72a7m65xwfAXAjDcX4ztxKza1N8y8OPaSiEulI2m193w3jLEPJVIXHsSW+1dlBP8MP9BbzimpuPdV+sVQn2fH6bd4QUfdp/ZtebkIWZtHk4li58LCOdH9yRAKo+cbGw8ocKscS2546SVw3EUP97/zIXDL/g8i/mjQmBN+QarkqTgVw0YjNAPlmJ0T0C/8XnEfH5USu/8dGJLSAx+N52EQO1EosJcWjlmyNSBGDR9AZ65S8pGjd2k5xdgykASoMoiIR+LU+Q7cCqeefEhu7EYEUX4XcKNZvlyqf1Q+A3A9MdeFKKc2uj/+Nt4bEwYvEinTDmiK03cdA1caorJr2LedCZAlULwOxbQT9jf8x9gXOMDtwUSyldnjagLpqfPIlGn6x39+KuYFSrluSpo4TN9IUb1JQGqKUK2TgdjjRK+fafhjmkPS3kItwUYNkUUIKtRB31mIVwHPYAh/o0jljKCoWZjOGUGZF9QgC4RhSu6swCYVTX10WlJIOY83J0az/MwZhYjNdOCarUndWaCEWUfPZXyzbpfK0R+NeVQvgwrvG8LxoBLuW8CXdBn0Q2Y3I8EyFwiuAyzzTL4DwrFrOfs3YWOGPVqb4yjTpDSwYrsOvcibfqKuuswsXNnaflSKOt8u3y06QxC8kVQCV3d/mSQj/DDuKAaZJ01wWjtAmVQACbdJwliW8uQBChySW/cO0xNulohXktOBdVZNYbfR2UxWcpGnYgxb/XCqAAXVBeZ6PzpmDUuCLujN2bOro9jxKi7buZubcF6TjxWSMLlhNAbG4ZrDx7kQUeqQVp8vQDJ7w/Co5O94SOvPz+lnxZTn/NDcN297oLIhaF0fiRAFjMy6PxMKn9MurG5en2JGPNwjl6Uqpb8qkHw8mLHc4KH3/XltOu8k2HHzMBIFn3VlIDof76A/VLjr7jlLTwzOBPf/yy+R9+nMCKU8llSsGH+s4hh+RRz8OJHUxHaezSmdP8C6+1Dd8sMiJ0/G5tYfGCMxxMfzMcgv1CMoHcbWBIR7s9Wf5Csnn1iWlNuw8xRYfQ4V+Lk+tlYtp21CiSI//4UU0IjMILEKSaahQRtK1pMnzCA+qt03E8fp+OKrYxi/Ad4Z0YEBt89FdHvbxTSrjjdnkbfELEMd6+cByMTDce5GPLsNIT0GoNAt7XQ03MtHzYM/lSjSpLJotosWVQer2Hk4yOaCTaohYbFdqPv1YgJFyAJJ352RrohSXrfDHI1NWZyqefcFd7BblBTN8t0JB+2WGqRE6XB7NWnEGNbjZ96yPOoh3zjFDni3hOb+fCx3kLQvuzYZER/Kp1hmCcefSOALBLx7UUxohtu7eGA6kwdVv2zWHIhOSDq/b5kGXkjUmFGolCHXeHPhLM0j6weEmiW1AwZq3RiXB5hcNwJBUd0+P6yVh4vx8GXdXWD7X1uqMHW51ORzLrwkgWh1LBw19Y2lyHu8MEoFj3XRBbcArLgbB20URpMHmLF7s3S+we1iGIdq4RT+M+70nepAzFxRRgih5CF8mm9dVt33YL164bBzUUf2GpC2iRPhNP996HrEr/rgj4hVDmrCpH0k5BAyDHqVnfIq0yIeTMDRyVngnJ2COaN9sbNU3OQwcq0nyeGsetg9+Q5uifCdUj3jv3bLGeQun0niqjmtcldWF3Ogim0wo+Ie1eD4huBnO9+lNKuDzqtJTSob5BgxeQeXl4nQAzLvpexxN7N1kcLL3qxnNkvChDDshrHUlmPT4ugwWJSHbkpkgAxtiO/mRpUXs6+64r+932JBY/Px7ihQ4UGqyED4csOXJqCw4IAMQz4JS5VqGxewVFiUpsZDl+mfQXJ2CkJEMOyfT9SqVFUaK5i7yiYBINezOn7RAFiVH+CsxliGfqQ5cjQCCdYBn2CnUuvaDOy8qX/L4tfoP/kdaRs+kV63wx1UV/ZxgSoGtlHUhG93GY/sBDi9JJfgEP24WC2FeIUlaFaaGQZTmRBsR64CUnr7SQy1YKsSxEgRqgL1RHqhR+yCRCjBnEJzF3nDO0gMYUKVgzRreqGKe/5YdT9rvDpYeeSayeq002iADG25WD5jET8RxCXtpYh1Yd+SraANjIO2QkQY68Rm9+rH8vx92UWixlJ22z3iSCLI+E01S+VC9Wwi8RSgiQd3TeVOwaw3iPjDg+EUoNhPU3nKSWxad4assardQV1AsQoW18kCJ2Hj+TjH6AS6r/pVKHdddQgMbm1QZ+jyIum+hr97ZVbLf34Gpz6fA1KzdL764ROK0Iy4czNyL+Q38FmzTcK9FVsFfsdskuYOPXL+//FL0kGWFy16H3TeEx/6i0s++IXvPncHDTnFWNNdR2llYIIyS76wEFwZ+4rr6FY8OUOfFq3zUH/xlOTrzSSvVzTyN1fVSlemVN9u0MYYaIOdT3xkLI1wtRwHORKUGrAZ9RYLqZt9SE21ZWZZVa7Rt9ZaHTg3R1Pro/Eorqt8fTuruK4RGk5sq7QOfp4s0JyQPh0++PSNq5x98WMzR+lIzGnCq5+3hh+Vxgefas/Fn0agnF3NXRNXU2MeS1deFvLkEqfxROn2m+8QChVLw/mZnLF8Bft9xeJWQNY+qVxKt5Eci5H2DBRSHwiVSSI1Th1zK4FH+QM1m1yDAttcNxFnwZJY2MNKZJcnzasFVdwOL1L53VKXS6dVoSqBFFxhV/YAOF9i9g6so2u1F0u2vFVl9KrsGzBpnf/gXkPjcWCf6/Eht0JyLU6CeNMD81qej4NHiWVkxhO96IPrEMx64VbDTi2cw9iG28HUsRsVwPJ+nFo1CGXOYlXVtmgq6eBuoFRNhBStkZkw8yKwM0T/leho2/86ZzgyvIf5mPXoFTAKJRhCeJidIhpvO1rdE9UcsGKvhLk5YuFZDzVzHFjcqnnLnwscqQEWxeexLszjmPFilTEHDOhTOGGwfcHIipAynOVqWqxgW17GVbXsn04Qduz9RtcUMQa9xpkHGlmfzH5kvvtIvmpEMlkWKmDmBUjx4CeJEaWIiRvkz5nHKuAMFXKZMTuJsfV4bc/G9owHt4NK7Lc+QpWXE8fsIlx1vL/vfDHnVaEjtFTy/pqXsOfwvTWBuWTDWAznxU9R9ZPBlDMwaAwVqEM0F3mJBNT+hbERL+AJQdFi0ztaTuZeOSyA6siMHS8zaGgxaQoNk5ED15GnJhkh6GIPcCucNU254DYiLNs5FLuCV9ZMjZ9tQTr7bft28Vsjen/GMIfeQyq1gyv/ELqf9OuVfbTL+zIMAize1xDboHG1mFznIsewWIZ5p0Rk4oLmM2hROCAaWICw2OyODmgCaehL2Lq5oVAbcMB5CtCZjGOpFIPROGJmx+0NRZWZORRmtwV3WUWHI0ubrhts/kapXxQIXKWnfWhcIJS8tDYMBWLvWMXRX0+zSB1U/fssVKhDDVaBUwHGx03ugTZmWK2hpxH2SEzjr6XgYPC505wb+x1rRbFQht4CSb9JdHWMiTBPVEmWKH+I4MQ2WDCQkOyz5RRP8cBWr+uyNjQaH/RZrKZLwUzktPoXDRq9L1HjTCy0srSRDdbHZYyZDNXsVoBr8LSRsctRvJeSYjPlAvnoA6nDlPdZAUHRPZpOtJ5qQT5B5BUss5KczPjrm868RTtAZj++lsYxwbMCTZLzSR0XJyoTumx7vmXIcZxtE0GoHzWIuTmlkLhK07ptiSuxr+WbRSncttWLtBvx+yXlwvfZIjTpvWI+cdsaWKCFtNpfyPVJG7S+IBMpYEvmyqHSqRtmIQl0qQIxeRVWDZVnJxgyjLAotDC15POozQB0c/XT6awoZhK+SdTfjaFXGdElUxFTXQyPl70Bk6yDKHz8eqi8QhkKka9uty8UtG1R/vUf/UPrDnMMtnzN0R9PR/9PeiQfyzHt2+1MKDp+DSGzJ8MNm5bkkcWF/UgXb2ccfabB5DOhI+N+9z/OUaxsq4oQrahBHJtEJj7v7lJCEzK2Oy4c2XOcA9wRm2pB9zVukZTtAn3J/HE2F5QFqfg652rkXPJNbGFKdq2qdLGHKx+Ol+cJhumxoxXghFMZVhtMSPLUCUYei6krhnRadhrawNs3yUhMOWYkG/tApXWFWqZI+RkjdYdZ5AGcxZ2p952NYyZZShykKO7xQJDmCeCaf+Jh7Kw+1MrNd3UGC/shVmDSHBra2A0lKKIJcpk0FrOYcXr0vgCWTxTV/rCPd+KUsFjzI7rJk4frjLi+1lZaDAZP4Cu5y12PSRY+SUwlLJC7ArHc7lYv8JujOVCSCsvQKVAGPX42Ww7OkWYk7Ox9Zt6YRFoaxmyGYFvRWByD9ZzsZUjS+8KD9cS/PCcUZq6LM6im8gG/2srkZdtEa9d7gxVRgY+Wym5wfq5YeJ9HtRNY3SFd4Ab3Q/Kf5bys6Scc/h+ld2KA3f4Yd7D1AOyVEKpqG1+ZYVRdJ/niPe52lSKDCNzsVCZe1fj0JwsevoY0iQEZqqw2XF0vTJvNeSVVmg0Lpcfjl42DfdNGokgpOPnTR/gZAvPQfhHB3BLD+oTfjUCO7+VEq8DOq0lBCRgw7+fxZrdqSQGlVD7BSIwhG1UodRK+Em5hMkAS5dhUzyJgJMHfCmPMKU7fiM+tAnQRTEU7vSsKrxsxwsUBIj9XufYhmX40DYrj7BsfgMrNiQg10LC2J3ykViw3wltWN5UgBiWjV8g5pSZhMVVOM9AP1fBaqojbTneWLwRx7Ioj1y8FuH4Kk+4NWvE6FBQwB7gShTlNBioaUj1R0iMTQXr1Lv5BCEwKAiqBi5qsnY2vIe9SQaYHTzgT59rHMqQm/QDYm0CxCh6Db//EEfXS+2HhvYT4Anzse/wV/2gTEOKN2KPjpov9whMG34//ByvsEV04ByO5NCrxge33iMmIdWE9W+mkmVRjmrqzdsmMvir5HC3L8MDeYj+KR9saETtR3mCXVCdkC24eBpwzIhvNxthqnWEJsAdwa5mxHxpExRXRA6pt4qy3zuN1TFG5JHZqWH7ZMcOUJAFKhMGvgX6y+Du4Awf2pc4wUINHzmJVmYONr7bSIAYmSZ8v1pHl1UDOTWM4ndU6C6Ms1wE0soLTIAYSm/x+MFsumNj2lqG1LAnv5yCz3bSNZfWiuUo5CXxULvYuTprkPjiSXx/yARjpaz+2v3klM/uOug7DSaeCA+HE3xsaQGNrnlnEdLo/inJgkVpMRKaW1lhbx7+s1yHZOYuVblJ+2ZlTvehbrJIDeLeOo2DOZWopnsaTJ+rS7Pxy44yoXNxOTgqpmDKHSRAdC3GpB0tChApquTNKERR3cyK6wO+dhznKjMZEU89jb5uOuwnS6jJ2gxdhmHkqOm4qZvY2FVbC/Fn7OvY35JwdSgt/yiWw7kofJ/FvKEhzNgTKDu7A9FHtgpu8eaRfvwqP42d9zxyaeNk1yid2BLidAacBk9ACHOd56UJP8ZrwvlD2P/ba1i9+xCOZxfC2mgWI4dz3VJRCF1qCrbHLMGqVgWIEQx39hwZc5t25Do53BLiXEFmImzm6Do3i6uXL9xdneCAMiRtmIuUMxeYTn/Nwy0hTgcxcCmmv3UTXI5H48sX10iJ1wfcEuJcQbTwCRLHlMRxpUoU6+Kwd831IEAcTgeiBGqslcjTidOtrie4JcThcDicDoNbQhwOh8PpMLgIcTgcDqfD4CLE4XA4nA6DixCHw+FwOgwuQv8TuEDuehv6B07DIE2ElMbhXK9o4edLdT1wLPxkjZb25lxzOHh6Bb4m/X/VUKo0qKywoKrqche54Fw08om46/Y5mNTvBoR1D0IPWSkOZv0lfcjhNI9yenc8vFCL7k7FOJVy1SfQXmHCETXibgwP7YX+vUdjsLsHUrOSYLeqHOcagk/R7uyELMX4+wcCSZ9g+xa7ddwYjlMwdeJtCHVmq30fwq6TR1FQkQtTlbTyqh22xRH1G0cg5nMp0YYUbbMhbMHMQhz8KgtHj0hJ1x2OiHzBn5q0IsS8W3KJqzl3TiKXRGIiW7Fbl4HFL3bElbf+w2DNq9vxtyhlCwvzkuXvHAC1cjCGDrwRvT0dgfyj+GzPl9KCqZxrCe6Ou25xQVDfYaIAJX2D1X9+g7Sy080KUD1lKGtlUSq2srIY378YGfk1UHprMG5+CKJaWaa/c+MIbag7wkKpUZNS/ldI3KhD4tl8xGy8tqW3NK+5leHLYa04jTzjN/h510rsyq4GvAdjQtBFx2jltANchK5XuozGwBAXwHKaLKALxygpLrzwiqEFR3T4/mVxW/9MMlYfYQ4ONwwY38xKy5zOzZFibH0555q1co3nWutM2ZOOY/HJggXk12Ns0zhPnA6n07rjxDg/4v+moyuxKms8nrgrDGomqxY99q95GdFHpaViFLdhylNzMTrCAwr2OYvXk7gd61evxkn7kAqed2PG4zMxLIjy2Xd9WfyfJ1/Afult29FCPnQRht8cAY0UDMucF48jW5YhL79+GRv/Wbsw3F+HQxsMCLo7Cr5sZd3qMqQfXIs/D24WMzEcR8P3rscxJNwDcrqOmpJU/L6/FJETm3HHaZ7EvDG9gNObsCJhj5TYMqJ7A0hZNh4HY6VEG5I7rkncFCnmDo6dwn/ek8b7FI7o80wwxvRxhVIo60pkJ2Ri06qyhuG8FU4YvCgEY3rIyd44j+r8PKzb5YD77veGoe44asxYH4xgFrbbziUjuoqsTeLDOLKYOH/zRbCaBZhj8WGKsJu5C39vWMXVk70xcXw3dFc5imG8Bc7T9Z2g41LeulhCLdDofNqCz8JwPDpIqlRn07F4pwyzHvSHvxAnyIzEH9Kx9WcpDHBby5BxozsmP+iDcA2Vo5Q370wufllZTJaAmIWhvs8P0+7wEuMSMVdqTh5i1ubhlBgwR6SZ6zbZ31uGLU+ODssXFtuFMuiCqPf7Y4xPOQ6+dxp7bavLaFww/IUAqt8u4vlVlSP1twz8uLbSFrBXoMH51VqRvDkL1tvDWl6n77Gv8diUYORsGoGtF1xKrRdG3vYkbvI2YNeGJTjW2Ya4rnPqHsHOhjFTD316kRAPSKEYgXvvJEXK0SO3sJISAjFy+sNCcDUh+N0/F2BSXxIWs4G+Q3nMrkIo7sefeQh1gRIxHo+9/BRGUwOvcCCRonwsr7BlFV1ghdvmcRj6NsbfTgIkL0OuTgd9XhnkPgMxauai+gildfii38QoeJRRvtwiWLsqETJqDiJ7Sx8TbnfOw8jeJEC14v4MNYGIGhEMu9if9bi6CS6kvMKrF6lReYNCaLCqrbbmpAv6LLoBk/tR42kuEdx22WYZ/AeFYtZz9pE/Wb5eGMcEyGpGxlkTsrp6YdJY5aW7vahxnPNwdxKg81Q3ipGaaUG12hPjngpu6C68JwCPUoPHhMpqNNW5F1PPliC7RGqdTOV0TmKaiQVXo4ZTfC9taeUXHUfGms2OJe3P1QXj/uYPZTGl5dCeZK6InGwLQ97WMiRYQLb5Qejj7Sxdiwl5Vhl8woPw6KuaOjGR30/vSXh95BXIZuefUwGlnxZTn6NyqH8A7K6btnwpkFxjDhiRJJgVHoi0DzUe4IEbWNC3fCMS6pY3k2PMW70wKsAF1UXi+RlrXBB2R2/MnG1Xa+nePcDOj87FlEPHzq5B6CR/u7Dsl4stiq8annyy3DVHp50dl350C/b+Fogh94TB012FvF8X4LWVX2DPdif0nNAP3o4mpP26E9nD52Pu7f5A1h68u2ABNv22BXt+PQWPm0cjLFiNrjFbkCJEsLwbk2aSJcWsnjmz8QXl22vbDhy4hOXTp6H3tNvh29WAQ/+9FycOb0FW/LdIk43FDSEhcK7agcxM0QXmNuAfCHRzgCXlI/z6zbvIStiAU9ab0TPUGy41FqSeSqFcc9F/8gB41NL+1oj7yzyyG/lB06kX7ICKc0ekfCI+/pMwoJsMJt3PSG6D56LWqRvK8tOQffgPmBsPA0S6Y2RPEgx3OYJGuKPPaHdqNLtjXF8XaqCLsfPjIuSzOG7UmNw71g2OmTqsfMaA+FgTEn8pQOWIbnTNDijZRr1zVtb9NPjb3e5QWPKx/mkd9seYcGJbPkyDtOjTrSuKU/Nw4jg7sBz9prrDvbIM8b+Y6zoC2tu16OVejdw/jUjTi2mRj4ehnztZR6tP4rtPTUjeVYg/LA4YGOkJX7UJf/4uCqXPJF8M9XVERsxxfPpOMZLpHMWtGDpbsLBzFTgjpFnhOcELftVGbJyfjcO2vAcrIATxvQgqksrq96dywfnkU1jzZiGSdxRS+figh0c19BupfNpahszyeDoUvVU1ZMGl4NP/VyRcQ/yWApT0ckD6T3lIZwH9mBA83R2BXU2IeSMN236g899hRLyHAlG9PKGS2cqaqLtu2ryVwj2vyDXWlZ1ILcp6qnFjdyW6Vtd/Vz5Vi3GhzjAmZuLgYSkex4PdcX9fOUwJp7Di5QLh/I7uLIPb7Z7o6VuL09I9DZ8dgoGeZInGpODzpXQd7N5VOGP4EFc4Nbr3dXTVwFqWj6xje0m4pLRWkHuOpucByE3dhbMXe/M4V5VOawk1oEaHpI22mJNfYNn/jcXsJ19AHL1T9NAK1o4+bgnShM8Zh7HhOHOHacgiElNYTPoq9nCryHJ65wM8dt9DGBRyGSPujr3gQR3XyswD1AuT0ojKfSlCiGuV1wgxoY4yZKXYud6MpQ172yGhovWUG2+3PwOMJ1MvO7ojo2LncqR8shx5rQRgtUXbZFuwtyOqSwsR85EOyZlShlAX6mvWIO1QMV2NjRrEJTBVc4bWFqmyr1KIJFp2uhAZdu6lVP2l2JsMObSe9JJfgEN7xRSBbYU4RQKsZnHIJawWsUENHhWGexd6Iny0A+T21kB7IDPjr59slsZ5xD2XiMUzMpDI3ra1DKFCEAsfXFqAvV9JbjyBGiQusZuxqJBDQ73/al0BjtqFZS1bXyQERvPwuXjb07hHDMsdHGGztbogsg8LdlOChM31guXvyyLlmpG0za6GWsxIOE3XTkIsThOQI9iHWUWlSIy2u45t1IlsrWIfWUP19XXor9uZmf87XB8iZCqErTPXmH5eov0dOnUHPv2yfltxR+OZMqvx4aotOJljhsIvAlETZ+CJ11fh00++xLyJQ6U8F0GABzUTgFPINNy7aFf99sJokF12yZSYGqmEpQLNOU5M5Vf+VxFsTGjxDNpmp+MUCbajQw2M9cYXfLxZY++A8OmRWLTebhvXaHTFkY1LAAW5V8oydhYaWnh3x5P2x10fjsGN3C+mVRmI3lsIo4MCYYMCMHV2X8z/tD+efMu9btzuqmOtQJ5NuBvR5jKkhl/w6BZbhU5Niwxyhge9OIaFNtzfp0GX7u46YcJf+fQa5IFIVmYKN4QyQcwjq83uuryEEOOuGP6i3XFpmzWgURhuRqkVBdK/IjWoFiy+K4PD9dHSXZdcH7emoqxFd9mJAtEXZTq1B7E7G2+7EW/XpluOrsSyf92D2f94Am+sXI/YeAMsCi363/cUZnSXMrWVzCLq2xGmVBw6GNtkS0yut8suBjc1+/GGHQpnNPNIU4/fJAz8ajyGiQlXEksJjv7Fxt68Meo+UVAYeSxOP2E8pUNMTOMtF0mN9NPDu7kzvxQqmOFIF12CuCbHpW2fvYVVg+zVmVg96zgWL0xC9IYcJBtroe4RhJnPsJ57O1BV0+IPJ9tehufFgX1vReticqwCguFsMmJ3k/3p8Nufl+KbqkbcCeZ/VSJsIr1M9RDOIft4UQOrvKCIdY9qkHGk6XFjYvIbhqhWyeuCIYo4wFEm/XvZaOHvwe5tedOJHZwO57rvH1ji9UIPS631gfH3JVj/lf22EvuzxHwNSYX+8BdY//4LOCR8roJXo7ZfpBc0f/83gkf1kt7bUX0IeezpV2vhUbwb+r2LG2y5afFivraSbkAxe/UdiEDWtRXQQtM7DM06VIx5QjhtpTZCcH1daTJiCgSXjP+wbmDj0QLHSoU0jVYB08FiHI2230qQbeslJ4j51OGe8LezPjRCz9meaphYqyaTQWXLR73uMNbrboAVGXk1gNwV3WWWRselbZv9mIYdOSRIP+Vj8w8FgutL6db4+LWoZsMbKmps2+u3UG0tQ+ri6NhYiNwbExe24lKzlCGbWS1qBbwKSxvtrxjJey9tqpg1xkQWmANC+7khUnDLleCvXQ33lX2mjO6gA7R+XZGxoeFxj0abpR//WpHFzo+eschZdpMVJqgResmzVBrhOALhzPFRYoC+harA6Tg66RTtGXjs9dHwZeIQ4gGFpQj6POoKl6Rgw7LlOCnlEtFi5HMfY9ZAV2pTKmEyGGBinT8Zfde8H/PeXilmU8zHix+MhLrACIvkBlD4BMKLNX5Vqdj06BP4RUyu55Gv8dhU1gfMQOzEB+zGnCR6LsXY6QPhTv9WmgwwFIu9TlevKqR8OLfOehOnaJch6ZspSEmXEpushECCM+1zjOlFDWU1WX7ZRtS6+cK7qxlVag/UNFkxQYshI17EbX7V0B1cie+ybTu+BJqdot0FkUv6CL+qP/VTEjZuEFP9F/bCrEHU66ytgdFQiiJJRLSWc1jxOus9M2zfpUaHzY7LqUK1nI3ryKCUOzQ4TvgbfTE1jPKVliA1/zw8/BxQkOWEcEoz6fKx67s8nEqgjGFqzHglGMHUe662mJFloH1SsovGERnRadgrTRL0mReGmb1rkEXWj4DcGcFacfpw3oFkfLaqYStVN7W61orsDKtgwTiqqpD4IllQbe5VSysvuHWFd4Ab1LSXjMwKOr8yHH7Z2NAiINpWhsQIb8yZ6wcN60rSNWdI1+xIVoX591PY/J2QS5xFN4dNvWbT1kuRIVx7F6i8q3FoThZss7SDnwjCUJvAk+qHkaVabSqR8lfg1HcGJJ4QP2bfj3qvP8Z4V9JVOEGZ09zKCg50n3uL95lNHc+2oJQ9W1TmqowMfLZSciRP8MO8B73JrjoPU44J+TUydNd2hdnqQh2oyw2l7gK/vv/GAxEuMCasxmen7fzHnGuCTmoJaeEbEohAJkDsrcKD/qf3PbRgw6MNMWD/+49j1c5UFJipQ+jHvkdbdw/SIU/0l3KhryfUDq7w6i59TpuXnEQr6zA2vfdGUwFiZOSimD2fBfQqpjTkzPPYER2LVCP1s1XaurDX7jIlXC96YMgA46b3sD+tDJVdlfCl/Wgd9IjblEx90OYw4M/jiTCdd0TQzY9ivE+EOIZwxTiPxNhCaoAcED5CU2dtZb93GqtjjMijstb4SRMZAhSQq2R2Fhl9981U7M60kvi4IriHGsGuZuyOqx+Kt3HqwzQczKGmVUUWULArrMeycaiEFboD1EFaDO4n5kOqCetpnwczy6V9isf2pwbZXZyrL+Dl4QxHNe1L+jzMjwTGbEbyzpOIbiRAjLxVadh4rARlNc7wl74TrCGroq7itAVp5YUeJEDMxSRzkc5PRcLQlLaVIXEgH6uXUPnQNVvtrjlYI4O7xs6q25uH/yzXIZm5+lg5CvnU8JFTvrqJDvRsBEjHYpvkKq0vKzW0DU6W7mEy1TwZCRBdU0ZKYwFi1JBYn8T3h0wwVsrgY9s/lblabXd+23IQvdkIIwmUml2vvwPSfslAwuW6zrpoEdTrBUwjAUJFOvaf4QJ0LcLXjrvOcfV9FrNGhEDJhm5qqmFNj8WKY1vFD681WvpRLIdzUURi5Kh/YEg3R3EOTEUh/vjtXew38SVMr0Wu+zGh/3XMuR9g1U/fYHtSOnKa66xyONcpJkMWjh/ZhNW/vM4F6BqGW0KcawduCXE4/3NwS4jD4XA4HQa3hDgcDofTYXBLiMPhcDgdRrtYQjKn+rW7OBwOh8OxwS0hDofD4XQYXIQ4HA6H02G0nztOPQKeQ4LAfjBeoY9F8emWlhztA7cb+sCl2ogS/e8or+Tz+zkcDud6pf1EqMcTGPzoICiltLKEL3B0g11s5jruQZ9/jIG39K7szE9I+GO3sCYWh8PhcK4v2iWyqoODI1B0GvknTyD7jANce3eH2t8T5ti9QnjuhuSgKC0Z54qUkGm6wUPbG37qGuh1lxb6gMPhcDjXLu04JmRCde5fqEz5BfmFUlKzlKC67DTKUj9G8sZ10JUBjsG3I7RxDDoOh8PhdHraf2KCbCQ0LACNMbeF1Z/tOP8H0uPTUQ0X+PYaJyVyOBwO53qh/UXo5huECIolp/c3G5a6CelJyGehpLv1EMM2NGEgeizdhod+2obbZw2U0jgcDofTGWh3EZJrxKAktbVtDSCfgBIWrEehhquY0IhAeAqxU5yg9g0UkzgcDofTKWi/iQkS1edcIevbC93CRsKv/wB09XRG+Zk01EifN8UMl+A70U1VgvzEA81MZDiFnDRHmEtOIPGLb1HZVm3jcDgcTofT/u44Ywz0W3fg7GkTunoHImT4sGaioV4kSZ/jTPTnKDVL7zkcDofTKWh3Eeo6fCGG/H0sAlVkuXzwCva+9AYKpM+axwVd218qORwOh9MOtHvz7uihAHPOFSd/j7L8llZNsOdmKD3opcKCCjGBw+FwONcJ7S5ClQl6lNGrV/gkMeFCaPvAiy3Cbcy88JRuDofD4XQq2t/RlRULg5FetaFwF1NaIQQ+/UPggirkpm2X0prSc/luPPTTbtw2XUrgcDgcTqeg/UVI5gUnNqNapoarbYG45pD1gfctT6C3VgYUJyA9vaWFTMdAJczdLoTpjJDA4XA4nE5C+4mQ72Po9++PcdNLDyFQRe+NacjPFz9qyF3oed/7uOX+x9En2AWwpOP4zuhWftjqCSfKhspCGBPEFA6Hw+F0DtrREjKhkv3Ix1qAvIStiPtoTSvCUo2ynHSk/74O+zYuQ2Gr0RyC4C6IWi7aMs2Bw+FwONcOnT+894DFuOffUXBJWof1r3wuJXI4HA6nM9D+Y0JXGlegxlqJc/p4KYHD4XA4nYXObwlxOBwOp9PS+S0hDofD4XRa2sUS4nA4HA6nObglxOFwOJwOg4sQh8PhcDoMLkIcDofD6TC4CHE4HA6nw+AixOFwOJwOg4sQh8PhcDoMLkIcDofD6TC4CHE4HA6nw+AixOFwOJwOg4sQh8PhcDoMLkIcDofD6TC4CHE4HA6ngwD+P6vpyiVN/YQYAAAAAElFTkSuQmCC;" vertex="1" parent="2">
                    <mxGeometry x="262" y="250" width="237" height="79" as="geometry"/>
                </mxCell>
                <mxCell id="13" value="" style="shape=flexArrow;endArrow=classic;html=1;entryX=0;entryY=0.5;entryDx=0;entryDy=0;" edge="1" parent="2">
                    <mxGeometry width="50" height="50" relative="1" as="geometry">
                        <mxPoint x="510" y="289" as="sourcePoint"/>
                        <mxPoint x="600" y="289.5" as="targetPoint"/>
                    </mxGeometry>
                </mxCell>
                <mxCell id="14" value="Request received" style="text;html=1;strokeColor=none;fillColor=none;align=center;verticalAlign=middle;whiteSpace=wrap;rounded=0;" vertex="1" parent="2">
                    <mxGeometry x="620" y="274.5" width="60" height="30" as="geometry"/>
                </mxCell>
                <mxCell id="15" value="Listener" style="text;html=1;strokeColor=none;fillColor=none;align=center;verticalAlign=middle;whiteSpace=wrap;rounded=0;" vertex="1" parent="2">
                    <mxGeometry x="350" y="215" width="60" height="30" as="geometry"/>
                </mxCell>
                <mxCell id="16" value="New request on server:&lt;br&gt;127.0.0.1:8000" style="rounded=0;whiteSpace=wrap;html=1;" vertex="1" parent="2">
                    <mxGeometry x="40" y="250" width="120" height="80" as="geometry"/>
                </mxCell>
                <mxCell id="17" value="" style="shape=flexArrow;endArrow=classic;html=1;" edge="1" parent="2">
                    <mxGeometry width="50" height="50" relative="1" as="geometry">
                        <mxPoint x="170" y="289" as="sourcePoint"/>
                        <mxPoint x="260" y="290" as="targetPoint"/>
                    </mxGeometry>
                </mxCell>
                <mxCell id="18" value="Emitter" style="text;html=1;strokeColor=none;fillColor=none;align=center;verticalAlign=middle;whiteSpace=wrap;rounded=0;" vertex="1" parent="2">
                    <mxGeometry x="70" y="215" width="60" height="30" as="geometry"/>
                </mxCell>
            </root>
        </mxGraphModel>
    </diagram>
</mxfile>